<?xml version="1.0" encoding="UTF-8"?>
<svg id="Vrstva_2" data-name="Vrstva 2" xmlns="http://www.w3.org/2000/svg" viewBox="0 0 105.24 103.33">
  <defs>
    <style>
      .cls-1 {
        fill: #58113c;
      }
    </style>
  </defs>
  <g id="Vrstva_1-2" data-name="Vrstva 1">
    <g>
      <path class="cls-1" d="M88.88,74.76c3.66-1.93,6.69-4.21,9.11-6.83,2.42-2.55,4.25-5.4,5.49-8.54,1.24-3.14,1.83-6.37,1.76-9.68-.14-2.76-.71-5.42-1.71-7.97-1-2.55-2.4-4.83-4.19-6.83-3.93-4.35-8.94-6.94-15.01-7.77-2.21-.34-4.28-.52-6.21-.52-4.83,0-9.63.79-14.39,2.38-3.8,1.38-7.25,3.14-10.35,5.28-3.31,2.21-6.42,5.04-9.32,8.49-2.62,3.18-4.97,6.8-7.04,10.87,0,0-5.77,11.9-6.63,15.22l-.73,2.07c-1.93,5.66-3.42,11.17-4.45,16.51-1.04,5.35-1.55,10.03-1.55,14.03h16.15c0-3.04.45-6.78,1.35-11.23.9-4.45,2.14-9.02,3.73-13.72,2,.69,3.97,1.31,5.9,1.86,2.18.57,4.36.99,6.54,1.3.05,3.68.69,7.05,1.95,10.09,1.31,3.18,3.21,5.87,5.69,8.08,3.73,3.31,8.08,5.11,13.05,5.38.34.07.9.1,1.66.1,3.17,0,6.42-.55,9.73-1.66,2.62-.9,4.97-1.93,7.04-3.11,2.07-1.17,3.45-2.04,4.14-2.59l-9.63-13.05c-2.14,1.52-4.38,2.66-6.73,3.42-1.66.55-3.14.83-4.45.83-1.52,0-2.9-.48-4.14-1.45-1.39-1.32-2.1-3.37-2.16-6.14,1.07-.17,2.14-.36,3.2-.59,4.42-.9,8.49-2.31,12.22-4.24ZM73.35,63.16c-2.76.62-5.56.93-8.39.93-3.38,0-6.73-.45-10.04-1.35-1.1-.28-2.38-.65-3.83-1.14,1.72-3.52,3.52-6.35,5.38-8.49,3.45-4.21,7.63-7.14,12.53-8.8,3.11-1.04,6.14-1.55,9.11-1.55.34,0,1.66.1,3.93.31,2.14.28,3.87,1.14,5.18,2.59,1.17,1.31,1.76,2.8,1.76,4.45.14,2.55-1.07,5.07-3.62,7.56-2.55,2.48-6.56,4.32-12.01,5.49Z"/>
      <rect class="cls-1" x="0" width="17.91" height="17.91"/>
      <path class="cls-1" d="M13.45,101.47c0-4.1.53-8.93,1.59-14.37.73-3.76,1.7-7.64,2.87-11.57V26.86H0v74.61h13.45Z"/>
    </g>
  </g>
</svg>